<svg xmlns="http://www.w3.org/2000/svg" xmlns:svg="http://www.w3.org/2000/svg" id="svg32" width="34" height="36" version="1.1" viewBox="0 0 34 36"><circle id="circle2" cx="17" cy="19" r="17" fill="#f4900c"/><circle id="circle4" cx="17" cy="17" r="17" fill="#ffcc4d"/><circle id="circle6" cx="17" cy="18" r="14" fill="#ffe8b6"/><circle id="circle8" cx="17" cy="17" r="14" fill="#ffac33"/><path id="path10" fill="#ffe8b6" d="m 8.543,10.856 c 0,-0.545 0.535,-0.763 0.535,-0.763 l 7.878,-3.7 7.953,3.7 c 0,0 0.548,0.122 0.548,0.767 v 0.641 H 8.543 Z"/><path id="path12" fill="#f4900c" d="m 24.929,12.836 c 0,-0.584 -0.505,-1.057 -1.127,-1.057 H 10.129 c -0.623,0 -1.057,0.473 -1.057,1.057 0,0.397 0.204,0.739 0.529,0.92 v 0.666 h 2.114 v -0.529 h 2.114 v 0.529 h 2.114 v -0.529 h 2.114 v 0.529 h 2.114 v -0.529 h 2.114 v 0.529 H 24.4 v -0.693 c 0.317,-0.188 0.529,-0.517 0.529,-0.893 z M 26.514,24 c 0,0.438 -0.355,0.793 -0.793,0.793 H 8.279 c -0.438,0 -0.793,-0.355 -0.793,-0.793 0,-0.438 0.355,-0.793 0.793,-0.793 h 17.443 c 0.437,0 0.792,0.355 0.792,0.793 z"/><path id="path14" fill="#f4900c" d="m 25.457,12.2 c 0,0.292 -0.236,0.529 -0.529,0.529 H 9.071 c -0.292,0 -0.529,-0.237 -0.529,-0.529 0,-0.292 0.237,-0.529 0.529,-0.529 l 15.857,0.003 c 0.293,0.001 0.529,0.234 0.529,0.526 z M 11.186,12.814 H 22.815 V 14 H 11.186 Z"/><path id="path16" fill="#ffd983" d="m 11.714,20.829 c 0,0.584 -0.316,1.057 -0.705,1.057 h -0.705 c -0.389,0 -0.705,-0.473 -0.705,-1.057 v -8.014 c 0,-0.584 0.316,-1.057 0.705,-1.057 h 0.705 c 0.389,0 0.705,0.473 0.705,1.057 z m 12.686,0 c 0,0.584 -0.315,1.057 -0.705,1.057 H 22.99 c -0.389,0 -0.705,-0.473 -0.705,-1.057 v -8.014 c 0,-0.584 0.315,-1.057 0.705,-1.057 h 0.705 c 0.389,0 0.705,0.473 0.705,1.057 z m -8.457,0 c 0,0.584 -0.316,1.057 -0.705,1.057 h -0.705 c -0.389,0 -0.705,-0.473 -0.705,-1.057 v -8.014 c 0,-0.584 0.316,-1.057 0.705,-1.057 h 0.705 c 0.389,0 0.705,0.473 0.705,1.057 z m 4.228,0 c 0,0.584 -0.316,1.057 -0.705,1.057 h -0.704 c -0.389,0 -0.705,-0.473 -0.705,-1.057 v -8.014 c 0,-0.584 0.316,-1.057 0.705,-1.057 h 0.704 c 0.389,0 0.705,0.473 0.705,1.057 z"/><path id="path18" fill="#ffcc4d" d="m 24.929,21.357 c 0,0.584 -0.473,1.057 -1.057,1.057 H 10.129 c -0.584,0 -1.057,-0.473 -1.057,-1.057 0,-0.584 0.473,-1.057 1.057,-1.057 h 13.743 c 0.583,0 1.057,0.473 1.057,1.057 z"/><path id="path20" fill="#ffd983" d="m 25.986,22.414 c 0,0.584 -0.473,1.057 -1.057,1.057 H 9.071 c -0.584,0 -1.057,-0.473 -1.057,-1.057 0,-0.584 0.473,-1.057 1.057,-1.057 h 15.857 c 0.584,0 1.058,0.473 1.058,1.057 z"/><path id="path22" fill="#ffd983" d="M 26.514,23.207 C 26.514,23.645 26.159,24 25.721,24 H 8.279 c -0.438,0 -0.793,-0.355 -0.793,-0.793 0,-0.438 0.355,-0.793 0.793,-0.793 h 17.443 c 0.437,0 0.792,0.355 0.792,0.793 z"/><path id="path24" fill="#ffcc4d" d="m 24.929,12.286 c 0,-0.584 -0.505,-1.057 -1.127,-1.057 H 10.129 c -0.623,0 -1.057,0.473 -1.057,1.057 0,0.397 0.204,0.739 0.529,0.92 v 0.666 h 2.114 v -0.529 h 2.114 v 0.529 h 2.114 v -0.529 h 2.114 v 0.529 h 2.114 v -0.529 h 2.114 v 0.529 H 24.4 v -0.693 c 0.317,-0.188 0.529,-0.517 0.529,-0.893 z"/><path id="path26" fill="#ffd983" d="m 8.543,11.463 c 0,-0.545 0.535,-0.763 0.535,-0.763 l 7.878,-3.7 7.953,3.7 c 0,0 0.548,0.122 0.548,0.767 v 0.291 H 8.543 Z"/><path id="path28" fill="#ffac33" d="m 17,8.343 c 0,0 -5.455,2.571 -5.999,2.803 -0.545,0.231 -0.363,0.611 0.001,0.611 h 11.97 c 0.562,0 0.429,-0.429 -0.017,-0.661 C 22.509,10.865 17,8.343 17,8.343 Z"/><path id="path30" fill="#ffd983" d="m 25.457,11.757 c 0,0.292 -0.236,0.529 -0.529,0.529 H 9.071 c -0.292,0 -0.529,-0.237 -0.529,-0.529 0,-0.292 0.237,-0.529 0.529,-0.529 l 15.857,0.003 c 0.293,10e-4 0.529,0.234 0.529,0.526 z"/></svg>