<svg xmlns="http://www.w3.org/2000/svg" xmlns:svg="http://www.w3.org/2000/svg" id="svg10" width="36.044" height="34.852" version="1.1" viewBox="0 0 36.044 34.852"><path id="path2" fill="#5c913b" d="m 11.405092,2.338836 c 6.48,-1.275 8.453,1.265 11.655,0.084 3.202,-1.181 0.093,2.82 -0.745,3.508 -0.84,0.688 -8.141,4.809 -11.307,3.298 -3.1659998,-1.511 -3.1819998,-6.186 0.397,-6.89 z"/><path id="path4" fill="#77b255" d="m 15.001092,14.999836 c -0.304,0 -0.605,-0.138 -0.801,-0.4 -0.687,-0.916 -1.308,-1.955 -1.965,-3.056 -2.2679998,-3.795 -4.8389998,-8.098 -11.45199979,-9.568 -0.539,-0.12 -0.879,-0.654 -0.759,-1.19299996 0.12,-0.54 0.654,-0.878 1.19299999,-0.759 7.454,1.65599996 10.3819998,6.55699996 12.7349998,10.49499996 0.63,1.054 1.224,2.049 1.848,2.881 0.332,0.442 0.242,1.069 -0.2,1.4 -0.18,0.135 -0.39,0.2 -0.599,0.2 z"/><path id="path6" fill="#ffcc4d" d="m 34.300092,30.533836 c 0.002,-0.017 -0.003,-0.028 -0.003,-0.043 2.774,-5.335 2.647,-15.113 -3.346,-21.107 -5.801,-5.8 -13.68,-5.821 -18.767,-4.067 -1.579,0.614 -2.9169998,0.066 -3.8149998,0.965 -0.881,0.881 -0.351,2.719 -0.714,3.819 -3.169,5.202 -3.405,13.025 2.6879998,19.117 4.962,4.962 10.438,6.842 19.98,4.853 0.002,-0.002 0.005,-10e-4 0.008,-0.002 1.148,-0.218 2.95,0.523 3.566,-0.094 1.085,-1.085 0.309,-2.358 0.403,-3.441 z"/><path id="path8" fill="#77b255" d="m 8.2080922,5.582836 c 0,0 -4.27,-0.59 -6.857,4.599 -2.587,5.188 0.582,9.125 0.29,12.653 -0.293,3.53 1.566,1.265 2.621,-0.445 1.055,-1.71 4.23,-4.895 4.938,-9.269 0.707,-4.376 -0.07,-6.458 -0.992,-7.538 z"/></svg>