<?xml version="1.0" encoding="UTF-8" standalone="no"?>
<svg
   viewBox="0 0 36.043736 34.851643"
   version="1.1"
   id="svg10"
   sodipodi:docname="lemon.svg"
   width="36.043736"
   height="34.851643"
   inkscape:version="1.1.1 (3bf5ae0d25, 2021-09-20)"
   xmlns:inkscape="http://www.inkscape.org/namespaces/inkscape"
   xmlns:sodipodi="http://sodipodi.sourceforge.net/DTD/sodipodi-0.dtd"
   xmlns="http://www.w3.org/2000/svg"
   xmlns:svg="http://www.w3.org/2000/svg">
  <defs
     id="defs14" />
  <sodipodi:namedview
     id="namedview12"
     pagecolor="#505050"
     bordercolor="#eeeeee"
     borderopacity="1"
     inkscape:pageshadow="0"
     inkscape:pageopacity="0"
     inkscape:pagecheckerboard="0"
     showgrid="false"
     fit-margin-top="0"
     fit-margin-left="0"
     fit-margin-right="0"
     fit-margin-bottom="0"
     inkscape:zoom="14.222222"
     inkscape:cx="17.964844"
     inkscape:cy="17.050781"
     inkscape:window-width="1366"
     inkscape:window-height="697"
     inkscape:window-x="-8"
     inkscape:window-y="-8"
     inkscape:window-maximized="1"
     inkscape:current-layer="svg10" />
  <path
     fill="#5c913b"
     d="m 11.405092,2.338836 c 6.48,-1.275 8.453,1.265 11.655,0.084 3.202,-1.181 0.093,2.82 -0.745,3.508 -0.84,0.688 -8.141,4.809 -11.307,3.298 -3.1659998,-1.511 -3.1819998,-6.186 0.397,-6.89 z"
     id="path2" />
  <path
     fill="#77b255"
     d="m 15.001092,14.999836 c -0.304,0 -0.605,-0.138 -0.801,-0.4 -0.687,-0.916 -1.308,-1.955 -1.965,-3.056 -2.2679998,-3.795 -4.8389998,-8.098 -11.45199979,-9.568 -0.539,-0.12 -0.879,-0.654 -0.759,-1.19299996 0.12,-0.54 0.654,-0.878 1.19299999,-0.759 7.454,1.65599996 10.3819998,6.55699996 12.7349998,10.49499996 0.63,1.054 1.224,2.049 1.848,2.881 0.332,0.442 0.242,1.069 -0.2,1.4 -0.18,0.135 -0.39,0.2 -0.599,0.2 z"
     id="path4" />
  <path
     fill="#ffcc4d"
     d="m 34.300092,30.533836 c 0.002,-0.017 -0.003,-0.028 -0.003,-0.043 2.774,-5.335 2.647,-15.113 -3.346,-21.107 -5.801,-5.8 -13.68,-5.821 -18.767,-4.067 -1.579,0.614 -2.9169998,0.066 -3.8149998,0.965 -0.881,0.881 -0.351,2.719 -0.714,3.819 -3.169,5.202 -3.405,13.025 2.6879998,19.117 4.962,4.962 10.438,6.842 19.98,4.853 0.002,-0.002 0.005,-10e-4 0.008,-0.002 1.148,-0.218 2.95,0.523 3.566,-0.094 1.085,-1.085 0.309,-2.358 0.403,-3.441 z"
     id="path6" />
  <path
     fill="#77b255"
     d="m 8.2080922,5.582836 c 0,0 -4.27,-0.59 -6.857,4.599 -2.587,5.188 0.582,9.125 0.29,12.653 -0.293,3.53 1.566,1.265 2.621,-0.445 1.055,-1.71 4.23,-4.895 4.938,-9.269 0.707,-4.376 -0.07,-6.458 -0.992,-7.538 z"
     id="path8" />
</svg>
