<svg xmlns="http://www.w3.org/2000/svg" id="svg11" width="167.926" height="62.396" x="0" y="0" version="1.1"><style id="style1" type="text/css">.st2{fill:#fcee21;stroke:#000;stroke-width:2}.st3{font-family:Liberation Sans,Arial}.st5{font-size:48px}</style><g id="usb" transform="matrix(.64168 0 0 -.64168 -60.446 123.547)"><g id="g6"><path id="path1" d="M344.6 98.8H105.4c-3.4 0-6.4 2.4-7 5.7-.4 2.1-.7 4.8-.7 8 0 5.4.9 10.2 1.6 13 .4 1.8 1.5 3.4 3.1 4.5l11 7.6c2.1 1.4 3.3 3.8 3.3 6.2V168h216.7v-24.2c0-2.5 1.2-4.8 3.3-6.2l11-7.6c1.5-1.1 2.6-2.6 3.1-4.5.7-2.9 1.6-7.6 1.6-13 0-3.2-.3-5.9-.7-8-.8-3.3-3.7-5.7-7.1-5.7z" style="fill:#999;stroke:#000;stroke-width:7"/><path id="rect1" d="M117 113.1h216v55H117z" style="fill:#e6e6e6;stroke:#000;stroke-width:4"/><path id="rect2" d="M127.5 109.5h28v13h-28z" class="st2"/><path id="rect3" d="M169.2 109.5h28v13h-28z" class="st2"/><path id="rect4" d="M211 109.5h28v13h-28z" class="st2"/><path id="rect5" d="M252.8 109.5h28v13h-28z" class="st2"/><path id="rect6" d="M294.5 109.5h28v13h-28z" class="st2"/></g></g><g id="text" transform="matrix(.64168 0 0 .64168 -60.446 -46.852)"><g id="g11" style="fill:#fff" transform="translate(4.711 4.454)"><text id="text7" x="11.391" y="0" class="st3 st5" style="font-size:24.9347px;text-align:center;text-anchor:middle;fill:#fff" transform="translate(128.15 87.73)">5</text><text id="text8" x="11.883" y="0" class="st3 st5" style="font-size:24.9347px;text-align:center;text-anchor:middle;fill:#fff" transform="translate(169.9 87.73)">4</text><text id="text9" x="11.25" y="0" class="st3 st5" style="font-size:24.9347px;text-align:center;text-anchor:middle;fill:#fff" transform="translate(211.652 87.73)">3</text><text id="text10" x="11.379" y="0" class="st3 st5" style="font-size:24.9347px;text-align:center;text-anchor:middle;fill:#fff" transform="translate(253.403 87.73)">2</text><text id="text11" x="6.328" y="0" class="st3 st5" style="font-size:24.9347px;text-align:center;text-anchor:middle;fill:#fff" transform="translate(295.155 87.73)">1</text></g></g></svg>