<svg xmlns="http://www.w3.org/2000/svg" xml:space="preserve" width="125" height="125" version="1.0" viewBox="-9.302 -9.782 125 125"><path d="M-8.233 52.72c0 33.926 27.503 61.429 61.43 61.429s61.432-27.502 61.432-61.43c-.001-33.926-27.506-61.432-61.432-61.432S-8.233 18.793-8.233 52.72Z" style="fill:#fff;stroke:#000;stroke-width:2.13867"/><path d="M92.114 13.653C84.132 5.672 74.315.646 64.023-1.43v9.765h-21.96v-9.764a55 55 0 0 0-28.09 15.085C-4.284 31.913-7.087 59.764 5.551 80.974h19.233v19.24c17.356 10.344 39.16 10.344 56.516 0V80.975h19.234c12.64-21.211 9.838-49.065-8.42-67.322Z" style="fill:none;stroke:#000;stroke-width:2.13867"/><path d="M43.384 23.329h19.282v34.278H43.384z" style="fill:none;stroke:#000;stroke-width:2.13867"/><g transform="translate(-14.289 -14.62)scale(.30929)"><circle cx="126.093" cy="141.746" r="19.554" style="fill:none;stroke:#000;stroke-width:6.9148"/><circle cx="102.949" cy="233.331" r="19.554" style="fill:none;stroke:#000;stroke-width:6.9148"/><circle cx="332.331" cy="233.331" r="19.554" style="fill:none;stroke:#000;stroke-width:6.9148"/><circle cx="170.961" cy="324.452" r="19.554" style="fill:none;stroke:#000;stroke-width:6.9148"/><circle cx="309.183" cy="141.745" r="19.554" style="fill:none;stroke:#000;stroke-width:6.9148"/><circle cx="264.315" cy="324.451" r="19.554" style="fill:none;stroke:#000;stroke-width:6.9148"/></g><path d="M144.198 102.218h42v42h-42z" style="fill:none" transform="translate(-14.289 -14.62)scale(.30929)"/><path d="M39.173 18.791a5 5 0 0 0-.98.075c-2.063.326-3.132 1.826-3.355 3.429h.03c.46-.624 1.277-1.128 2.346-1.128 1.707 0 2.91 1.247 2.91 3.117 0 1.782-1.203 3.415-3.222 3.415-2.049 0-3.4-1.604-3.4-4.112 0-1.9.668-3.4 1.633-4.365.802-.787 1.87-1.277 3.088-1.425.386-.06.713-.075.95-.075zm-2.241 7.898c1.113 0 1.87-.935 1.87-2.316s-.787-2.212-1.99-2.212c-.786 0-1.528.475-1.885 1.188a1.2 1.2 0 0 0-.133.564c.015 1.589.757 2.776 2.123 2.776z"/><path d="M249.197 102.218h42v42h-42z" style="fill:none" transform="translate(-14.289 -14.62)scale(.30929)"/><path d="M71.901 18.984H68.22l-.371 2.45c.222-.03.43-.06.786-.06.758 0 1.485.164 2.079.52.757.416 1.38 1.262 1.38 2.509 0 1.885-1.499 3.296-3.592 3.296-1.054 0-1.93-.297-2.405-.594l.327-.995c.4.238 1.187.535 2.078.535 1.218 0 2.287-.802 2.272-2.108 0-1.277-.846-2.153-2.762-2.153-.564 0-.995.045-1.35.104l.623-4.602h4.617v1.098z"/><path d="M149.198 260.218h42v42h-42z" style="fill:none" transform="translate(-14.289 -14.62)scale(.30929)"/><path d="M35.212 76.403V75.6l1.024-.994c2.465-2.346 3.593-3.593 3.593-5.048 0-.98-.46-1.886-1.9-1.886-.876 0-1.604.446-2.049.817l-.416-.92a4.3 4.3 0 0 1 2.732-.98c2.064 0 2.94 1.425 2.94 2.805 0 1.782-1.292 3.222-3.326 5.182l-.757.712v.03h4.32v1.084z"/><path d="M244.197 260.218h42v42h-42z" style="fill:none" transform="translate(-14.289 -14.62)scale(.30929)"/><path d="M67.43 67.97h-.03l-1.677.906-.253-.995 2.109-1.128h1.113v9.65H67.43z"/><path d="M124.198 193.218h42v42h-42z" style="fill:none" transform="translate(-14.289 -14.62)scale(.30929)"/><path d="M31.518 55.68v-2.627h-4.484v-.846l4.306-6.176h1.41v6.012h1.351v1.01h-1.35v2.628zm0-3.637v-3.236q0-.758.044-1.514h-.044c-.297.564-.535.98-.802 1.44l-2.36 3.28v.03z"/><path d="M269.197 193.218h42v42h-42z" style="fill:none" transform="translate(-14.289 -14.62)scale(.30929)"/><path d="M72.639 54.196c.37.223 1.217.594 2.137.594 1.663 0 2.197-1.054 2.183-1.87-.015-1.352-1.232-1.93-2.494-1.93h-.728v-.98h.728c.95 0 2.152-.49 2.152-1.633 0-.772-.49-1.455-1.692-1.455-.772 0-1.514.341-1.93.638l-.356-.95c.52-.371 1.5-.742 2.539-.742 1.9 0 2.76 1.128 2.76 2.3 0 1.01-.608 1.856-1.78 2.287v.03c1.187.222 2.152 1.113 2.152 2.464 0 1.544-1.218 2.895-3.518 2.895-1.084 0-2.034-.341-2.51-.653z"/></svg>