<svg xmlns="http://www.w3.org/2000/svg" xmlns:xlink="http://www.w3.org/1999/xlink" width="291.585" height="100.786" viewBox="0 0 77.149 26.666"><defs><linearGradient xlink:href="#a" id="p" x1="-370" x2="-370" y1="395.934" y2="385.374" gradientTransform="matrix(.2997 0 0 .2997 141.664 -109.48)" gradientUnits="userSpaceOnUse"/><linearGradient id="a"><stop offset="0" style="stop-color:#666;stop-opacity:1"/><stop offset="1" style="stop-color:#666;stop-opacity:0"/></linearGradient><linearGradient xlink:href="#a" id="q" x1="-370" x2="-370" y1="395.934" y2="385.374" gradientTransform="matrix(.2997 0 0 .2997 137.13 -109.48)" gradientUnits="userSpaceOnUse"/><linearGradient id="c"><stop offset="0" style="stop-color:#4d4d4d;stop-opacity:1"/><stop offset="1" style="stop-color:#4d4d4d;stop-opacity:0"/></linearGradient><linearGradient xlink:href="#b" id="r" x1="-286.631" x2="-286.378" y1="402.582" y2="382.004" gradientTransform="translate(180.599 -155.84)scale(.41975)" gradientUnits="userSpaceOnUse"/><linearGradient id="b"><stop offset="0" style="stop-color:#000;stop-opacity:1"/><stop offset="1" style="stop-color:#000;stop-opacity:0"/></linearGradient><linearGradient xlink:href="#c" id="v" x1="-398.125" x2="-397.768" y1="378.88" y2="395.264" gradientTransform="matrix(.2997 0 0 .29972 137.131 -109.482)" gradientUnits="userSpaceOnUse"/><linearGradient xlink:href="#a" id="w" x1="-370" x2="-370" y1="395.934" y2="385.374" gradientTransform="matrix(.06331 0 0 .2997 43.489 -109.48)" gradientUnits="userSpaceOnUse"/><linearGradient xlink:href="#a" id="x" x1="-370" x2="-370" y1="395.934" y2="385.374" gradientTransform="matrix(.06331 0 0 .2997 43.373 -109.48)" gradientUnits="userSpaceOnUse"/><linearGradient xlink:href="#a" id="o" x1="-370" x2="-370" y1="395.934" y2="385.374" gradientTransform="matrix(.2997 0 0 .2997 141.664 -109.48)" gradientUnits="userSpaceOnUse"/><linearGradient xlink:href="#c" id="s" x1="-398.125" x2="-397.768" y1="378.88" y2="395.264" gradientTransform="matrix(.2997 0 0 .29972 137.131 -109.482)" gradientUnits="userSpaceOnUse"/><linearGradient xlink:href="#c" id="t" x1="-398.125" x2="-397.768" y1="378.88" y2="395.264" gradientTransform="matrix(.2997 0 0 .29972 137.131 -109.482)" gradientUnits="userSpaceOnUse"/><linearGradient xlink:href="#c" id="u" x1="-398.125" x2="-397.768" y1="378.88" y2="395.264" gradientTransform="matrix(.2997 0 0 .29972 137.131 -109.482)" gradientUnits="userSpaceOnUse"/><linearGradient xlink:href="#a" id="d" x1="-370" x2="-370" y1="395.934" y2="385.374" gradientTransform="translate(185.547 -142.318)scale(.41975)" gradientUnits="userSpaceOnUse"/><linearGradient xlink:href="#a" id="f" x1="-370" x2="-370" y1="395.934" y2="385.374" gradientTransform="translate(185.547 -142.318)scale(.41975)" gradientUnits="userSpaceOnUse"/><linearGradient xlink:href="#a" id="g" x1="-370" x2="-370" y1="395.934" y2="385.374" gradientTransform="translate(179.197 -142.318)scale(.41975)" gradientUnits="userSpaceOnUse"/><linearGradient xlink:href="#b" id="h" x1="-286.631" x2="-286.378" y1="402.582" y2="382.004" gradientTransform="translate(180.608 -142.318)scale(.41975)" gradientUnits="userSpaceOnUse"/><linearGradient xlink:href="#c" id="i" x1="-398.125" x2="-397.768" y1="378.88" y2="395.264" gradientTransform="translate(179.197 -142.318)scale(.41975)" gradientUnits="userSpaceOnUse"/><linearGradient xlink:href="#c" id="j" x1="-398.125" x2="-397.768" y1="378.88" y2="395.264" gradientTransform="translate(179.197 -142.318)scale(.41975)" gradientUnits="userSpaceOnUse"/><linearGradient xlink:href="#c" id="k" x1="-398.125" x2="-397.768" y1="378.88" y2="395.264" gradientTransform="translate(179.197 -142.318)scale(.41975)" gradientUnits="userSpaceOnUse"/><linearGradient xlink:href="#c" id="l" x1="-398.125" x2="-397.768" y1="378.88" y2="395.264" gradientTransform="translate(179.197 -142.318)scale(.41975)" gradientUnits="userSpaceOnUse"/><linearGradient xlink:href="#a" id="m" x1="-370" x2="-370" y1="395.934" y2="385.374" gradientTransform="matrix(.08867 0 0 .41975 48.045 -142.318)" gradientUnits="userSpaceOnUse"/><linearGradient xlink:href="#a" id="n" x1="-370" x2="-370" y1="395.934" y2="385.374" gradientTransform="matrix(.08867 0 0 .41975 47.884 -142.318)" gradientUnits="userSpaceOnUse"/><filter id="e" width="1.089" height="1.936" x="-.045" y="-.468" style="color-interpolation-filters:sRGB"><feGaussianBlur stdDeviation=".837"/></filter></defs><path d="M19.066 16.733h24.339v6.896H19.066Z" style="fill:#ccc;fill-opacity:1;stroke:none;stroke-width:.176386"/><path d="M19.066 16.733h24.339v6.896H19.066Z" style="color:#000;display:inline;overflow:visible;visibility:visible;fill:url(#d);fill-opacity:1;fill-rule:nonzero;stroke:none;stroke-width:.176386;marker:none;enable-background:accumulate"/><path d="M-387.258 381.116h29.529c4.272 0 7.711.957 7.711 2.146s-3.44 2.147-7.711 2.147h-29.53c-4.271 0-7.71-.957-7.71-2.147s3.439-2.146 7.71-2.146" style="color:#000;display:inline;overflow:visible;visibility:visible;opacity:.858657;fill:#f2f2f2;fill-opacity:1;fill-rule:nonzero;stroke:none;stroke-width:1;marker:none;filter:url(#e);enable-background:accumulate" transform="matrix(.32782 0 0 .41976 148.988 -142.32)"/><path d="M19.066 16.733h24.339v6.896H19.066Z" style="fill:#ccc;fill-opacity:1;stroke:none;stroke-width:.176386"/><path d="M19.066 16.733h24.339v6.896H19.066Z" style="color:#000;display:inline;overflow:visible;visibility:visible;fill:url(#f);fill-opacity:1;fill-rule:nonzero;stroke:none;stroke-width:.176386;marker:none;enable-background:accumulate"/><path d="M-387.258 381.116h29.529c4.272 0 7.711.957 7.711 2.146s-3.44 2.147-7.711 2.147h-29.53c-4.271 0-7.71-.957-7.71-2.147s3.439-2.146 7.71-2.146" style="color:#000;display:inline;overflow:visible;visibility:visible;opacity:.858657;fill:#f2f2f2;fill-opacity:1;fill-rule:nonzero;stroke:none;stroke-width:1;marker:none;filter:url(#e);enable-background:accumulate" transform="matrix(.3574 0 0 .41976 160.665 -142.32)"/><path d="M5.999 16.733s1.85 1.375 2.923 1.35c.972-.025 2.586-1.35 2.586-1.35v6.896s-1.556-1.813-2.624-1.837C7.744 21.767 6 23.63 6 23.63c-7.954-2.805-8.043-4.936 0-6.896" style="fill:#ccc;fill-opacity:1;stroke:none;stroke-width:.176386"/><path d="M17.858 16.733h1.208v6.896h-1.208z" style="fill:#000;fill-opacity:1;stroke:none;stroke-width:.176386"/><path d="M5.999 16.733s1.85 1.375 2.923 1.35c.972-.025 2.586-1.35 2.586-1.35v6.896s-1.556-1.813-2.624-1.837C7.744 21.767 6 23.63 6 23.63c-7.954-2.805-8.043-4.936 0-6.896" style="color:#000;display:inline;overflow:visible;visibility:visible;fill:url(#g);fill-opacity:1;fill-rule:nonzero;stroke:none;stroke-width:.176386;marker:none;enable-background:accumulate"/><path d="M39.68 13.522h34.232c1.793 0 3.237 1.822 3.237 4.085v4.974c0 2.263-1.444 4.085-3.237 4.085H39.68c-1.793 0-3.236-1.822-3.236-4.085v-4.974c0-2.263 1.443-4.085 3.236-4.085" style="color:#000;display:inline;overflow:visible;visibility:visible;fill:#4d4d4d;fill-opacity:1;fill-rule:nonzero;stroke:none;stroke-width:.176386;marker:none;enable-background:accumulate"/><path d="M39.68 13.522h34.232c1.793 0 3.237 1.822 3.237 4.085v4.974c0 2.263-1.444 4.085-3.237 4.085H39.68c-1.793 0-3.236-1.822-3.236-4.085v-4.974c0-2.263 1.443-4.085 3.236-4.085" style="color:#000;display:inline;overflow:visible;visibility:visible;fill:url(#h);fill-opacity:1;fill-rule:nonzero;stroke:none;stroke-width:.176386;marker:none;enable-background:accumulate"/><path d="M-372.494 381.116c12.452 0 22.476.957 22.476 2.146s-10.024 2.147-22.476 2.147-22.476-.957-22.476-2.147 10.025-2.146 22.476-2.146" style="color:#000;display:inline;overflow:visible;visibility:visible;opacity:.858657;fill:#f2f2f2;fill-opacity:1;fill-rule:nonzero;stroke:none;stroke-width:1;marker:none;filter:url(#e);enable-background:accumulate" transform="matrix(.0681 0 0 .41976 31.073 -142.32)"/><path d="M11.508 16.733h1.208v6.896h-1.208z" style="fill:#000;fill-opacity:1;stroke:none;stroke-width:.176386"/><path d="M11.508 16.733h1.208v6.896h-1.208z" style="fill:url(#i);fill-opacity:1;stroke:none;stroke-width:.176386"/><path d="M11.508 16.733h1.208v6.896h-1.208z" style="fill:#000;fill-opacity:1;stroke:none;stroke-width:.176386"/><path d="M11.508 16.733h1.208v6.896h-1.208z" style="fill:url(#j);fill-opacity:1;stroke:none;stroke-width:.176386"/><path d="M11.508 16.733h1.208v6.896h-1.208z" style="fill:#000;fill-opacity:1;stroke:none;stroke-width:.176386"/><path d="M11.508 16.733h1.208v6.896h-1.208z" style="fill:url(#k);fill-opacity:1;stroke:none;stroke-width:.176386"/><path d="M11.508 16.733h1.208v6.896h-1.208z" style="fill:#000;fill-opacity:1;stroke:none;stroke-width:.176386"/><path d="M11.508 16.733h1.208v6.896h-1.208z" style="fill:url(#l);fill-opacity:1;stroke:none;stroke-width:.176386"/><path d="M12.716 16.733h5.142v6.896h-5.142z" style="fill:#ccc;fill-opacity:1;stroke:none;stroke-width:.176386"/><path d="M12.878 16.733h5.14v6.896h-5.14z" style="color:#000;display:inline;overflow:visible;visibility:visible;fill:url(#m);fill-opacity:1;fill-rule:nonzero;stroke:none;stroke-width:.176386;marker:none;enable-background:accumulate"/><path d="M-387.258 381.116h29.529c4.272 0 7.711.957 7.711 2.146s-3.44 2.147-7.711 2.147h-29.53c-4.271 0-7.71-.957-7.71-2.147s3.439-2.146 7.71-2.146" style="color:#000;display:inline;overflow:visible;visibility:visible;opacity:.858657;fill:#f2f2f2;fill-opacity:1;fill-rule:nonzero;stroke:none;stroke-width:1;marker:none;filter:url(#e);enable-background:accumulate" transform="matrix(.06925 0 0 .41976 40.161 -142.32)"/><path d="M15.287 16.733c1.424 0 2.57.072 2.57.161v6.573c0 .09-1.146.162-2.57.162s-2.57-.072-2.57-.162v-6.573c0-.09 1.146-.16 2.57-.16" style="fill:#ccc;fill-opacity:1;stroke:none;stroke-width:.176386"/><path d="M12.716 16.733h5.142v6.896h-5.142z" style="color:#000;display:inline;overflow:visible;visibility:visible;fill:url(#n);fill-opacity:1;fill-rule:nonzero;stroke:none;stroke-width:.176386;marker:none;enable-background:accumulate"/><path d="M-387.258 381.116h29.529c4.272 0 7.711.957 7.711 2.146s-3.44 2.147-7.711 2.147h-29.53c-4.271 0-7.71-.957-7.71-2.147s3.439-2.146 7.71-2.146" style="color:#000;display:inline;overflow:visible;visibility:visible;opacity:.858657;fill:#f2f2f2;fill-opacity:1;fill-rule:nonzero;stroke:none;stroke-width:1;marker:none;filter:url(#e);enable-background:accumulate" transform="matrix(.10441 0 0 .41976 54.196 -142.32)"/><text xml:space="preserve" x="4.804" y="16.423" style="font-size:3.76289px;font-family:Arial;-inkscape-font-specification:Arial;fill:#fff;stroke:none;stroke-width:.333327"><tspan x="4.804" y="16.423" style="font-size:3.76289px;fill:#fff;stroke-width:.333327">4</tspan></text><text xml:space="preserve" x="13.939" y="16.407" style="font-size:3.76289px;font-family:Arial;-inkscape-font-specification:Arial;fill:#fff;stroke:none;stroke-width:.333327"><tspan x="13.939" y="16.407" style="font-size:3.76289px;fill:#fff;stroke-width:.333327">5</tspan></text><text xml:space="preserve" x="27.077" y="16.414" style="font-size:3.76289px;font-family:Arial;-inkscape-font-specification:Arial;fill:#fff;stroke:none;stroke-width:.333327"><tspan x="27.077" y="16.414" style="font-size:3.76289px;fill:#fff;stroke-width:.333327">6</tspan></text><path d="M22.797 4.084h17.378v4.924H22.797Z" style="fill:#ccc;fill-opacity:1;stroke:none;stroke-width:.12594"/><path d="M22.797 4.084h17.378v4.924H22.797Z" style="color:#000;display:inline;overflow:visible;visibility:visible;fill:url(#o);fill-opacity:1;fill-rule:nonzero;stroke:none;stroke-width:.12594;marker:none;enable-background:accumulate"/><path d="M-387.258 381.116h29.529c4.272 0 7.711.957 7.711 2.146s-3.44 2.147-7.711 2.147h-29.53c-4.271 0-7.71-.957-7.71-2.147s3.439-2.146 7.71-2.146" style="color:#000;display:inline;overflow:visible;visibility:visible;opacity:.858657;fill:#f2f2f2;fill-opacity:1;fill-rule:nonzero;stroke:none;stroke-width:1;marker:none;filter:url(#e);enable-background:accumulate" transform="matrix(.23407 0 0 .29971 115.561 -109.48)"/><path d="M22.797 4.084h17.378v4.924H22.797Z" style="fill:#ccc;fill-opacity:1;stroke:none;stroke-width:.12594"/><path d="M22.797 4.084h17.378v4.924H22.797Z" style="color:#000;display:inline;overflow:visible;visibility:visible;fill:url(#p);fill-opacity:1;fill-rule:nonzero;stroke:none;stroke-width:.12594;marker:none;enable-background:accumulate"/><path d="M-387.258 381.116h29.529c4.272 0 7.711.957 7.711 2.146s-3.44 2.147-7.711 2.147h-29.53c-4.271 0-7.71-.957-7.71-2.147s3.439-2.146 7.71-2.146" style="color:#000;display:inline;overflow:visible;visibility:visible;opacity:.858657;fill:#f2f2f2;fill-opacity:1;fill-rule:nonzero;stroke:none;stroke-width:1;marker:none;filter:url(#e);enable-background:accumulate" transform="matrix(.25518 0 0 .29971 123.899 -109.48)"/><path d="M13.467 4.084s1.321.982 2.087.963c.694-.017 1.847-.963 1.847-.963v4.924s-1.111-1.295-1.873-1.312c-.814-.018-2.06 1.312-2.06 1.312-5.68-2.003-5.743-3.525 0-4.924" style="fill:#ccc;fill-opacity:1;stroke:none;stroke-width:.12594"/><path d="M21.935 4.084h.862v4.924h-.862z" style="fill:#000;fill-opacity:1;stroke:none;stroke-width:.12594"/><path d="M13.467 4.084s1.321.982 2.087.963c.694-.017 1.847-.963 1.847-.963v4.924s-1.111-1.295-1.873-1.312c-.814-.018-2.06 1.312-2.06 1.312-5.68-2.003-5.743-3.525 0-4.924" style="color:#000;display:inline;overflow:visible;visibility:visible;fill:url(#q);fill-opacity:1;fill-rule:nonzero;stroke:none;stroke-width:.12594;marker:none;enable-background:accumulate"/><path d="M39.671 0h34.232c1.793 0 3.236 1.822 3.236 4.085v4.974c0 2.264-1.443 4.085-3.236 4.085H39.67c-1.793 0-3.237-1.822-3.237-4.085V4.085C36.434 1.822 37.878 0 39.671 0" style="color:#000;display:inline;overflow:visible;visibility:visible;fill:#4d4d4d;fill-opacity:1;fill-rule:nonzero;stroke:none;stroke-width:.176386;marker:none;enable-background:accumulate"/><path d="M39.671 0h34.232c1.793 0 3.236 1.822 3.236 4.085v4.974c0 2.264-1.443 4.085-3.236 4.085H39.67c-1.793 0-3.237-1.822-3.237-4.085V4.085C36.434 1.822 37.878 0 39.671 0" style="color:#000;display:inline;overflow:visible;visibility:visible;fill:url(#r);fill-opacity:1;fill-rule:nonzero;stroke:none;stroke-width:.176386;marker:none;enable-background:accumulate"/><path d="M-372.494 381.116c12.452 0 22.476.957 22.476 2.146s-10.024 2.147-22.476 2.147-22.476-.957-22.476-2.147 10.025-2.146 22.476-2.146" style="color:#000;display:inline;overflow:visible;visibility:visible;opacity:.858657;fill:#f2f2f2;fill-opacity:1;fill-rule:nonzero;stroke:none;stroke-width:1;marker:none;filter:url(#e);enable-background:accumulate" transform="matrix(.04863 0 0 .29971 31.37 -109.48)"/><path d="M17.401 4.086h.863V9.01h-.863z" style="fill:#000;fill-opacity:1;stroke:none;stroke-width:.125943"/><path d="M17.401 4.086h.863V9.01h-.863z" style="fill:url(#s);fill-opacity:1;stroke:none;stroke-width:.125943"/><path d="M17.401 4.086h.863V9.01h-.863z" style="fill:#000;fill-opacity:1;stroke:none;stroke-width:.125943"/><path d="M17.401 4.086h.863V9.01h-.863z" style="fill:url(#t);fill-opacity:1;stroke:none;stroke-width:.125943"/><path d="M17.401 4.086h.863V9.01h-.863z" style="fill:#000;fill-opacity:1;stroke:none;stroke-width:.125943"/><path d="M17.401 4.086h.863V9.01h-.863z" style="fill:url(#u);fill-opacity:1;stroke:none;stroke-width:.125943"/><path d="M17.401 4.086h.863V9.01h-.863z" style="fill:#000;fill-opacity:1;stroke:none;stroke-width:.125943"/><path d="M17.401 4.086h.863V9.01h-.863z" style="fill:url(#v);fill-opacity:1;stroke:none;stroke-width:.125943"/><path d="M18.264 4.084h3.67v4.924h-3.67z" style="fill:#ccc;fill-opacity:1;stroke:none;stroke-width:.12594"/><path d="M18.379 4.084h3.67v4.924h-3.67z" style="color:#000;display:inline;overflow:visible;visibility:visible;fill:url(#w);fill-opacity:1;fill-rule:nonzero;stroke:none;stroke-width:.12594;marker:none;enable-background:accumulate"/><path d="M-387.258 381.116h29.529c4.272 0 7.711.957 7.711 2.146s-3.44 2.147-7.711 2.147h-29.53c-4.271 0-7.71-.957-7.71-2.147s3.439-2.146 7.71-2.146" style="color:#000;display:inline;overflow:visible;visibility:visible;opacity:.858657;fill:#f2f2f2;fill-opacity:1;fill-rule:nonzero;stroke:none;stroke-width:1;marker:none;filter:url(#e);enable-background:accumulate" transform="matrix(.04945 0 0 .29971 37.86 -109.48)"/><path d="M20.1 4.084c1.016 0 1.835.051 1.835.115v4.694c0 .063-.819.115-1.836.115s-1.835-.052-1.835-.116V4.2c0-.064.818-.115 1.835-.115" style="fill:#ccc;fill-opacity:1;stroke:none;stroke-width:.12594"/><path d="M18.264 4.084h3.67v4.924h-3.67z" style="color:#000;display:inline;overflow:visible;visibility:visible;fill:url(#x);fill-opacity:1;fill-rule:nonzero;stroke:none;stroke-width:.12594;marker:none;enable-background:accumulate"/><path d="M-387.258 381.116h29.529c4.272 0 7.711.957 7.711 2.146s-3.44 2.147-7.711 2.147h-29.53c-4.271 0-7.71-.957-7.71-2.147s3.439-2.146 7.71-2.146" style="color:#000;display:inline;overflow:visible;visibility:visible;opacity:.858657;fill:#f2f2f2;fill-opacity:1;fill-rule:nonzero;stroke:none;stroke-width:1;marker:none;filter:url(#e);enable-background:accumulate" transform="matrix(.07455 0 0 .29971 47.88 -109.48)"/><text xml:space="preserve" x="12.615" y="3.862" style="font-size:2.68673px;font-family:Arial;-inkscape-font-specification:Arial;fill:#fff;stroke:none;stroke-width:.237997"><tspan x="12.615" y="3.862" style="font-size:2.68673px;fill:#fff;stroke-width:.237997">1</tspan></text><text xml:space="preserve" x="19.137" y="3.85" style="font-size:2.68673px;font-family:Arial;-inkscape-font-specification:Arial;fill:#fff;stroke:none;stroke-width:.237997"><tspan x="19.137" y="3.85" style="font-size:2.68673px;fill:#fff;stroke-width:.237997">2</tspan></text><text xml:space="preserve" x="28.517" y="3.855" style="font-size:2.68673px;font-family:Arial;-inkscape-font-specification:Arial;fill:#fff;stroke:none;stroke-width:.237997"><tspan x="28.517" y="3.855" style="font-size:2.68673px;fill:#fff;stroke-width:.237997">3</tspan></text></svg>