<svg xmlns="http://www.w3.org/2000/svg" xmlns:xlink="http://www.w3.org/1999/xlink" width="291.585" height="49.68" viewBox="0 0 77.149 13.144"><defs><linearGradient id="a"><stop offset="0" style="stop-color:#666;stop-opacity:1"/><stop offset="1" style="stop-color:#666;stop-opacity:0"/></linearGradient><linearGradient id="c"><stop offset="0" style="stop-color:#4d4d4d;stop-opacity:1"/><stop offset="1" style="stop-color:#4d4d4d;stop-opacity:0"/></linearGradient><linearGradient id="b"><stop offset="0" style="stop-color:#000;stop-opacity:1"/><stop offset="1" style="stop-color:#000;stop-opacity:0"/></linearGradient><linearGradient xlink:href="#a" id="d" x1="-370" x2="-370" y1="395.934" y2="385.374" gradientTransform="translate(185.547 -155.84)scale(.41975)" gradientUnits="userSpaceOnUse"/><linearGradient xlink:href="#a" id="f" x1="-370" x2="-370" y1="395.934" y2="385.374" gradientTransform="translate(185.547 -155.84)scale(.41975)" gradientUnits="userSpaceOnUse"/><linearGradient xlink:href="#a" id="g" x1="-370" x2="-370" y1="395.934" y2="385.374" gradientTransform="translate(179.197 -155.84)scale(.41975)" gradientUnits="userSpaceOnUse"/><linearGradient xlink:href="#b" id="h" x1="-286.631" x2="-286.378" y1="402.582" y2="382.004" gradientTransform="translate(180.608 -155.84)scale(.41975)" gradientUnits="userSpaceOnUse"/><linearGradient xlink:href="#c" id="i" x1="-398.125" x2="-397.768" y1="378.88" y2="395.264" gradientTransform="translate(179.197 -155.84)scale(.41975)" gradientUnits="userSpaceOnUse"/><linearGradient xlink:href="#c" id="j" x1="-398.125" x2="-397.768" y1="378.88" y2="395.264" gradientTransform="translate(179.197 -155.84)scale(.41975)" gradientUnits="userSpaceOnUse"/><linearGradient xlink:href="#c" id="k" x1="-398.125" x2="-397.768" y1="378.88" y2="395.264" gradientTransform="translate(179.197 -155.84)scale(.41975)" gradientUnits="userSpaceOnUse"/><linearGradient xlink:href="#c" id="l" x1="-398.125" x2="-397.768" y1="378.88" y2="395.264" gradientTransform="translate(179.197 -155.84)scale(.41975)" gradientUnits="userSpaceOnUse"/><linearGradient xlink:href="#a" id="m" x1="-370" x2="-370" y1="395.934" y2="385.374" gradientTransform="matrix(.08867 0 0 .41975 48.045 -155.84)" gradientUnits="userSpaceOnUse"/><linearGradient xlink:href="#a" id="n" x1="-370" x2="-370" y1="395.934" y2="385.374" gradientTransform="matrix(.08867 0 0 .41975 47.884 -155.84)" gradientUnits="userSpaceOnUse"/><filter id="e" width="1.089" height="1.936" x="-.045" y="-.468" style="color-interpolation-filters:sRGB"><feGaussianBlur stdDeviation=".837"/></filter></defs><path d="M19.066 3.211h24.339v6.896H19.066Z" style="fill:#ccc;fill-opacity:1;stroke:none;stroke-width:.176386"/><path d="M19.066 3.211h24.339v6.896H19.066Z" style="color:#000;display:inline;overflow:visible;visibility:visible;fill:url(#d);fill-opacity:1;fill-rule:nonzero;stroke:none;stroke-width:.176386;marker:none;enable-background:accumulate"/><path d="M-387.258 381.116h29.529c4.272 0 7.711.957 7.711 2.146s-3.44 2.147-7.711 2.147h-29.53c-4.271 0-7.71-.957-7.71-2.147s3.439-2.146 7.71-2.146" style="color:#000;display:inline;overflow:visible;visibility:visible;opacity:.858657;fill:#f2f2f2;fill-opacity:1;fill-rule:nonzero;stroke:none;stroke-width:1;marker:none;filter:url(#e);enable-background:accumulate" transform="matrix(.32782 0 0 .41976 148.988 -155.841)"/><path d="M19.066 3.211h24.339v6.896H19.066Z" style="fill:#ccc;fill-opacity:1;stroke:none;stroke-width:.176386"/><path d="M19.066 3.211h24.339v6.896H19.066Z" style="color:#000;display:inline;overflow:visible;visibility:visible;fill:url(#f);fill-opacity:1;fill-rule:nonzero;stroke:none;stroke-width:.176386;marker:none;enable-background:accumulate"/><path d="M-387.258 381.116h29.529c4.272 0 7.711.957 7.711 2.146s-3.44 2.147-7.711 2.147h-29.53c-4.271 0-7.71-.957-7.71-2.147s3.439-2.146 7.71-2.146" style="color:#000;display:inline;overflow:visible;visibility:visible;opacity:.858657;fill:#f2f2f2;fill-opacity:1;fill-rule:nonzero;stroke:none;stroke-width:1;marker:none;filter:url(#e);enable-background:accumulate" transform="matrix(.3574 0 0 .41976 160.665 -155.841)"/><path d="M5.999 3.211s1.85 1.375 2.923 1.35c.972-.024 2.586-1.35 2.586-1.35v6.896S9.952 8.294 8.884 8.27C7.744 8.245 6 10.107 6 10.107c-7.954-2.805-8.043-4.936 0-6.896" style="fill:#ccc;fill-opacity:1;stroke:none;stroke-width:.176386"/><path d="M17.858 3.211h1.208v6.896h-1.208z" style="fill:#000;fill-opacity:1;stroke:none;stroke-width:.176386"/><path d="M5.999 3.211s1.85 1.375 2.923 1.35c.972-.024 2.586-1.35 2.586-1.35v6.896S9.952 8.294 8.884 8.27C7.744 8.245 6 10.107 6 10.107c-7.954-2.805-8.043-4.936 0-6.896" style="color:#000;display:inline;overflow:visible;visibility:visible;fill:url(#g);fill-opacity:1;fill-rule:nonzero;stroke:none;stroke-width:.176386;marker:none;enable-background:accumulate"/><path d="M39.68 0h34.232c1.793 0 3.237 1.822 3.237 4.085v4.974c0 2.264-1.444 4.085-3.237 4.085H39.68c-1.793 0-3.236-1.822-3.236-4.085V4.085C36.444 1.822 37.887 0 39.68 0" style="color:#000;display:inline;overflow:visible;visibility:visible;fill:#4d4d4d;fill-opacity:1;fill-rule:nonzero;stroke:none;stroke-width:.176386;marker:none;enable-background:accumulate"/><path d="M39.68 0h34.232c1.793 0 3.237 1.822 3.237 4.085v4.974c0 2.264-1.444 4.085-3.237 4.085H39.68c-1.793 0-3.236-1.822-3.236-4.085V4.085C36.444 1.822 37.887 0 39.68 0" style="color:#000;display:inline;overflow:visible;visibility:visible;fill:url(#h);fill-opacity:1;fill-rule:nonzero;stroke:none;stroke-width:.176386;marker:none;enable-background:accumulate"/><path d="M-372.494 381.116c12.452 0 22.476.957 22.476 2.146s-10.024 2.147-22.476 2.147-22.476-.957-22.476-2.147 10.025-2.146 22.476-2.146" style="color:#000;display:inline;overflow:visible;visibility:visible;opacity:.858657;fill:#f2f2f2;fill-opacity:1;fill-rule:nonzero;stroke:none;stroke-width:1;marker:none;filter:url(#e);enable-background:accumulate" transform="matrix(.0681 0 0 .41976 31.073 -155.841)"/><path d="M11.508 3.211h1.208v6.896h-1.208z" style="fill:#000;fill-opacity:1;stroke:none;stroke-width:.176386"/><path d="M11.508 3.211h1.208v6.896h-1.208z" style="fill:url(#i);fill-opacity:1;stroke:none;stroke-width:.176386"/><path d="M11.508 3.211h1.208v6.896h-1.208z" style="fill:#000;fill-opacity:1;stroke:none;stroke-width:.176386"/><path d="M11.508 3.211h1.208v6.896h-1.208z" style="fill:url(#j);fill-opacity:1;stroke:none;stroke-width:.176386"/><path d="M11.508 3.211h1.208v6.896h-1.208z" style="fill:#000;fill-opacity:1;stroke:none;stroke-width:.176386"/><path d="M11.508 3.211h1.208v6.896h-1.208z" style="fill:url(#k);fill-opacity:1;stroke:none;stroke-width:.176386"/><path d="M11.508 3.211h1.208v6.896h-1.208z" style="fill:#000;fill-opacity:1;stroke:none;stroke-width:.176386"/><path d="M11.508 3.211h1.208v6.896h-1.208z" style="fill:url(#l);fill-opacity:1;stroke:none;stroke-width:.176386"/><path d="M12.716 3.211h5.142v6.896h-5.142z" style="fill:#ccc;fill-opacity:1;stroke:none;stroke-width:.176386"/><path d="M12.878 3.211h5.14v6.896h-5.14z" style="color:#000;display:inline;overflow:visible;visibility:visible;fill:url(#m);fill-opacity:1;fill-rule:nonzero;stroke:none;stroke-width:.176386;marker:none;enable-background:accumulate"/><path d="M-387.258 381.116h29.529c4.272 0 7.711.957 7.711 2.146s-3.44 2.147-7.711 2.147h-29.53c-4.271 0-7.71-.957-7.71-2.147s3.439-2.146 7.71-2.146" style="color:#000;display:inline;overflow:visible;visibility:visible;opacity:.858657;fill:#f2f2f2;fill-opacity:1;fill-rule:nonzero;stroke:none;stroke-width:1;marker:none;filter:url(#e);enable-background:accumulate" transform="matrix(.06925 0 0 .41976 40.161 -155.841)"/><path d="M15.287 3.211c1.424 0 2.57.072 2.57.161v6.574c0 .089-1.146.16-2.57.16s-2.57-.071-2.57-.16V3.372c0-.089 1.146-.16 2.57-.16" style="fill:#ccc;fill-opacity:1;stroke:none;stroke-width:.176386"/><path d="M12.716 3.211h5.142v6.896h-5.142z" style="color:#000;display:inline;overflow:visible;visibility:visible;fill:url(#n);fill-opacity:1;fill-rule:nonzero;stroke:none;stroke-width:.176386;marker:none;enable-background:accumulate"/><path d="M-387.258 381.116h29.529c4.272 0 7.711.957 7.711 2.146s-3.44 2.147-7.711 2.147h-29.53c-4.271 0-7.71-.957-7.71-2.147s3.439-2.146 7.71-2.146" style="color:#000;display:inline;overflow:visible;visibility:visible;opacity:.858657;fill:#f2f2f2;fill-opacity:1;fill-rule:nonzero;stroke:none;stroke-width:1;marker:none;filter:url(#e);enable-background:accumulate" transform="matrix(.10441 0 0 .41976 54.196 -155.841)"/><text xml:space="preserve" x="4.804" y="2.901" style="font-size:3.76289px;font-family:Arial;-inkscape-font-specification:Arial;fill:#fff;stroke:none;stroke-width:.333327"><tspan x="4.804" y="2.901" style="font-size:3.76289px;fill:#fff;stroke-width:.333327">1</tspan></text><text xml:space="preserve" x="13.939" y="2.885" style="font-size:3.76289px;font-family:Arial;-inkscape-font-specification:Arial;fill:#fff;stroke:none;stroke-width:.333327"><tspan x="13.939" y="2.885" style="font-size:3.76289px;fill:#fff;stroke-width:.333327">2</tspan></text><text xml:space="preserve" x="27.077" y="2.892" style="font-size:3.76289px;font-family:Arial;-inkscape-font-specification:Arial;fill:#fff;stroke:none;stroke-width:.333327"><tspan x="27.077" y="2.892" style="font-size:3.76289px;fill:#fff;stroke-width:.333327">3</tspan></text></svg>